<?xml version="1.0" encoding="UTF-8" standalone="no"?>
<svg
   xmlns:dc="http://purl.org/dc/elements/1.1/"
   xmlns:cc="http://creativecommons.org/ns#"
   xmlns:rdf="http://www.w3.org/1999/02/22-rdf-syntax-ns#"
   xmlns:svg="http://www.w3.org/2000/svg"
   xmlns="http://www.w3.org/2000/svg"
   viewBox="0 0 816 1056"
   height="1056"
   width="816"
   xml:space="preserve"
   id="svg2"
   version="1.1"><metadata
     id="metadata8"><rdf:RDF><cc:Work
         rdf:about=""><dc:format>image/svg+xml</dc:format><dc:type
           rdf:resource="http://purl.org/dc/dcmitype/StillImage" /></cc:Work></rdf:RDF></metadata><defs
     id="defs6"><clipPath
       id="clipPath20"
       clipPathUnits="userSpaceOnUse"><path
         id="path18"
         d="M 0,0 H 612 V 792 H 0 Z" /></clipPath><clipPath
       id="clipPath28"
       clipPathUnits="userSpaceOnUse"><path
         id="path26"
         d="M 142.229,834.895 H 692.113 V 285.011 H 142.229 Z" /></clipPath><clipPath
       id="clipPath44"
       clipPathUnits="userSpaceOnUse"><path
         id="path42"
         d="M 85.439,641.67 185.549,606.453 164.94,710.062 Z" /></clipPath></defs><g
     transform="matrix(1.3333333,0,0,-1.3333333,0,1056)"
     id="g10"><path
       id="path12"
       style="fill:#702278;fill-opacity:1;fill-rule:nonzero;stroke:none"
       d="M 0,0 H 612 V 792 H 0 Z" /><g
       id="g14"><g
         clip-path="url(#clipPath20)"
         id="g16"><g
           id="g22"><g
             id="g24" /><g
             id="g36"><g
               id="g34"
               clip-path="url(#clipPath28)"><g
                 id="g32"
                 transform="translate(690.8627,559.9531)"><path
                   id="path30"
                   style="fill:none;stroke:#85438c;stroke-width:0.5;stroke-linecap:butt;stroke-linejoin:miter;stroke-miterlimit:10;stroke-dasharray:none;stroke-opacity:1"
                   d="m 0,0 c 0,-151.156 -122.536,-273.692 -273.692,-273.692 -151.156,0 -273.692,122.536 -273.692,273.692 0,151.156 122.536,273.692 273.692,273.692 C -122.536,273.692 0,151.156 0,0 Z m -92.941,0 c 0,-99.826 -80.925,-180.752 -180.751,-180.752 -99.826,0 -180.752,80.926 -180.752,180.752 0,99.826 80.926,180.751 180.752,180.751 99.826,0 180.751,-80.925 180.751,-180.751 z m -60.795,0 c 0,-66.25 -53.706,-119.956 -119.956,-119.956 -66.25,0 -119.956,53.706 -119.956,119.956 0,66.25 53.706,119.956 119.956,119.956 66.25,0 119.956,-53.706 119.956,-119.956 z" /></g></g></g></g></g></g><g
       id="g38"><g
         clip-path="url(#clipPath44)"
         id="g40"><g
           transform="translate(454.0181,1105.6138)"
           id="g46"><path
             id="path48"
             style="fill:none;stroke:#f8f042;stroke-width:0.70999998;stroke-linecap:butt;stroke-linejoin:miter;stroke-miterlimit:10;stroke-dasharray:none;stroke-opacity:1"
             d="M 0,0 -422.411,-359.609 M 0.249,-11.421 -422.162,-371.03 M 0.498,-22.843 -421.913,-382.452 M 0.748,-34.264 -421.663,-393.873 M 0.997,-45.686 -421.414,-405.294 M 1.246,-57.107 -421.165,-416.716 M 1.495,-68.528 -420.916,-428.137 M 1.745,-79.95 -420.667,-439.559 M 1.994,-91.371 -420.417,-450.98 M 2.243,-102.793 -420.168,-462.401 M 2.492,-114.214 -419.919,-473.823 M 2.741,-125.636 -419.67,-485.244 M 2.991,-137.057 -419.42,-496.666 M 3.24,-148.478 -419.171,-508.087 M 3.489,-159.9 -418.922,-519.509 M 3.738,-171.321 -418.673,-530.93 M 3.987,-182.743 -418.424,-542.351 M 4.237,-194.164 -418.174,-553.773 M 4.486,-205.586 -417.925,-565.194 M 4.735,-217.007 -417.676,-576.616 M 4.984,-228.428 -417.427,-588.037 M 5.234,-239.85 -417.177,-599.459 M 5.483,-251.271 -416.928,-610.88 M 5.732,-262.693 -416.679,-622.301 M 5.981,-274.114 -416.43,-633.723 M 6.23,-285.536 -416.181,-645.144 M 6.48,-296.957 -415.931,-656.566 M 6.729,-308.378 -415.682,-667.987 M 6.978,-319.8 -415.433,-679.409 M 7.227,-331.221 -415.184,-690.83 M 7.477,-342.643 -414.935,-702.251 M 7.726,-354.064 -414.685,-713.673 M 7.975,-365.486 -414.436,-725.094 M 8.224,-376.907 -414.187,-736.516 M 8.473,-388.328 -413.938,-747.937 M 8.723,-399.75 -413.688,-759.358 M 8.972,-411.171 -413.439,-770.78 M 9.221,-422.593 -413.19,-782.201" /></g><g
           transform="translate(237.0901,553.8174)"
           id="g50"><path
             id="path52"
             style="fill:none;stroke:#fd5d4b;stroke-width:0.35499999;stroke-linecap:butt;stroke-linejoin:miter;stroke-miterlimit:10;stroke-dasharray:none;stroke-opacity:1"
             d="m 0,0 -188.771,-4.119 -4.292,196.702 188.771,4.119 z" /></g></g></g></g></svg>