<svg id="Layer_1" data-name="Layer 1" xmlns="http://www.w3.org/2000/svg" viewBox="0 0 675.6 227.5"><defs><style>.cls-1{fill:#fff;}</style></defs><title>Vindicia-Logo-Color-Tag</title><polygon class="cls-1" points="103.1 0 103.1 15.2 113.5 21.4 103.1 27.6 103.1 42.7 136.2 21.4 103.1 0"/><path class="cls-1" d="M91.2,62.1l22.4,51.8L137,62.1h25.9L113.6,163.7,65.3,62.1H91.2Z" transform="translate(-65.3 -5.7)"/><path class="cls-1" d="M728.6,45c6.5,0,12.3,4.7,12.3,12a12,12,0,0,1-12.3,12.1c-6.5,0-12.4-4.7-12.4-12.1S722.1,45,728.6,45Zm0,21.5a9.17,9.17,0,0,0,9.1-9.5,9.1,9.1,0,1,0-18.2,0C719.6,62.5,723.6,66.5,728.6,66.5Zm-4.8-16.2h5.1c3.4,0,5.3,1.1,5.3,4,0,2.5-1.6,3.4-3.6,3.6l3.6,5.9h-2.8L728.1,58h-1.7v5.8h-2.7V50.3h0.1Zm2.7,5.6h2.4c1.5,0,2.6-.2,2.6-1.9,0-1.4-1.6-1.7-2.8-1.7h-2.3v3.6h0.1Z" transform="translate(-65.3 -5.7)"/><polygon class="cls-1" points="361.1 0 361.1 15.2 371.5 21.4 361.1 27.6 361.1 42.7 394.2 21.4 361.1 0"/><polygon class="cls-1" points="510.1 0.1 510.1 15.3 520.4 21.5 510.1 27.7 510.1 42.8 543.1 21.5 510.1 0.1"/><path class="cls-1" d="M168.4,62.1h27.7V163.7H168.4V62.1Z" transform="translate(-65.3 -5.7)"/><path class="cls-1" d="M206.7,62.1h26.5V76.2h0.6c7.1-11.6,19.3-16.9,31-16.9,29.7,0,37.1,16.7,37.1,41.8v62.5H274V106.2c0-16.7-4.7-25-17.9-25-15.1,0-21.6,8.4-21.6,29.1v53.2H206.6V62.1h0.1Z" transform="translate(-65.3 -5.7)"/><path class="cls-1" d="M389.2,150.7h-0.4c-6.5,11-17.7,15.7-30.8,15.7-30.7,0-45.6-26.1-45.6-54.4,0-27.3,15.1-52.6,45-52.6,12,0,23.8,5.1,30.1,15.1h0.4V5.8h27.9V163.7H389.3v-13h-0.1ZM364.9,80.4c-18.3,0-24.6,15.9-24.6,32.4,0,15.9,7.3,32.6,24.6,32.6,18.3,0,24-16.1,24-32.8C388.8,96.1,383,80.4,364.9,80.4Z" transform="translate(-65.3 -5.7)"/><path class="cls-1" d="M426.4,62.2h27.7V163.8H426.4V62.2Z" transform="translate(-65.3 -5.7)"/><path class="cls-1" d="M536.9,97.9c-1.8-11.6-8.6-17.5-20.6-17.5-17.9,0-23.8,18.1-23.8,33,0,14.7,5.7,32,23.2,32,13.2,0,20.4-8.1,22.2-20.6h26.9c-3.7,26.9-22,41.7-48.9,41.7-30.6,0-51.3-21.6-51.3-52.1,0-31.6,18.9-55,51.9-55,24,0,46.2,12.6,47.7,38.5H536.9Z" transform="translate(-65.3 -5.7)"/><path class="cls-1" d="M575.4,62.2h27.7V163.8H575.4V62.2Z" transform="translate(-65.3 -5.7)"/><path class="cls-1" d="M616.7,93.4c1.6-25.9,25-34,47.8-34,20.2,0,44.6,4.5,44.6,28.9v52.8c0,9.2,1,18.5,3.5,22.6H684.3a40.63,40.63,0,0,1-2-9.8c-8.8,9.2-21.6,12.6-34.2,12.6-19.5,0-34.6-9.6-34.6-30.5,0.4-46.2,68.7-21.4,67.6-44.2C681.1,80,672.9,78,663,78c-10.8,0-17.5,4.3-18.5,15.3H616.7v0.1ZM681.1,114c-4.7,4.1-14.5,4.3-23.2,5.9s-16.5,4.7-16.5,14.9,8,13,17.1,13c21.8,0,22.6-17.1,22.6-23.4V114h0Z" transform="translate(-65.3 -5.7)"/><path class="cls-1" d="M708.2,214.7c-0.8,3.5-3.2,5.2-6.9,5.2-5.8,0-8.4-4.1-8.3-8.7h20c0.3-6.4-2.6-15.2-12-15.2-7.2,0-12.5,5.8-12.5,13.8,0.3,8.1,4.3,13.9,12.7,13.9,6,0,10.2-3.1,11.3-9h-4.3Zm-15.1-7.4c0.3-4.1,3.1-7.5,7.6-7.5a7.51,7.51,0,0,1,7.6,7.5H693.1Zm-9.7-10.7H679v15c0,4.8-2.6,8.3-7.8,8.3a5,5,0,0,1-5.4-5.3V196.7h-4.4V214c0,5.7,2.2,9.7,9.1,9.7,3.8,0,6.8-1.5,8.6-4.8h0.1v4.2h4.1V196.6h0.1Zm-50.5,26.5h4.4v-15c0-4.8,2.6-8.3,7.8-8.3a5,5,0,0,1,5.4,5.3V223h4.4V205.6c0-5.7-2.2-9.7-9.1-9.7-3.8,0-6.8,1.5-8.6,4.8H637v-4.2h-4.1v26.6Zm-9.2-8.4c-0.8,3.5-3.2,5.2-6.9,5.2-5.8,0-8.4-4.1-8.3-8.7h19.8c0.3-6.4-2.6-15.2-12-15.2-7.2,0-12.5,5.8-12.5,13.8,0.3,8.1,4.3,13.9,12.7,13.9,6,0,10.2-3.1,11.3-9h-4.1Zm-15.2-7.4c0.3-4.1,3.1-7.5,7.6-7.5a7.51,7.51,0,0,1,7.6,7.5H608.5Zm-7.1-10.7h-4.6l-7.2,22.1h-0.1l-7.4-22.1h-4.9l9.8,26.5h4.7Zm-30.9,18.1c-0.8,3.5-3.2,5.2-6.9,5.2-5.8,0-8.4-4.1-8.3-8.7h19.8c0.3-6.4-2.6-15.2-12-15.2-7.2,0-12.5,5.8-12.5,13.8,0.3,8.1,4.3,13.9,12.7,13.9,6,0,10.2-3.1,11.3-9h-4.1Zm-15.1-7.4c0.3-4.1,3.1-7.5,7.6-7.5a7.51,7.51,0,0,1,7.6,7.5H555.4Zm-32.7-4V190.5h12.1c4.6,0,6.5,2.6,6.5,6.3,0,5.3-3.9,6.5-8.5,6.5H522.7Zm-4.9,19.8h4.9V207.5h11.9c4.7,0,5.5,3.1,6.1,6.6s-0.1,7.5,1.3,9h5.4c-2.1-2.5-1.9-6.6-2.2-10.1s-1.2-6.7-5.5-7.5v-0.1c4.5-1.2,6.4-4.8,6.4-9.3,0-5.9-4.2-9.6-11.1-9.6H517.8v36.6h0Zm-43.5,0h4.4v-15c0-4.8,2.6-8.3,7.8-8.3a5,5,0,0,1,5.4,5.3V223h4.4V205.6c0-5.7-2.2-9.7-9.1-9.7-3.8,0-6.8,1.5-8.6,4.8h-0.1v-4.2h-4.1v26.6h-0.1Zm-30.9-13.3c0,7.7,4.5,13.8,12.9,13.8s12.9-6.1,12.9-13.8-4.5-13.9-12.9-13.9S443.4,202,443.4,209.8Zm4.6,0c0-6.4,3.7-10.1,8.3-10.1s8.3,3.6,8.3,10.1-3.7,10-8.3,10S448,216.3,448,209.8Zm-14.3,13.3h4.4V196.6h-4.4v26.5Zm4.4-36.6h-4.4v5.3h4.4v-5.3Zm-14.7,2.1H419v7.9h-4.5v3.8H419v16.9c0,4.9,1.8,5.8,6.3,5.8h3.3v-3.8h-2c-2.7,0-3.3-.3-3.3-2.4V200.3h5.3v-3.8h-5.3v-7.9h0.1Zm-15.8,21c0,5.2-2,10.3-7.9,10.3s-8.4-4.9-8.4-10.1c0-4.9,2.2-10,8.1-10C405,199.8,407.6,204.6,407.6,209.6Zm-20.5,23.6h4.4V219.5h0.1c1.9,3.1,5.9,4.2,8.6,4.2,8.1,0,12.1-6.3,12.1-13.8S408.2,196,400.1,196c-3.7,0-7,1.3-8.5,4.2h-0.1v-3.6h-4.4v36.6Zm-11.3-10.1h4.4V196.6h-4.4v26.5Zm4.3-36.6h-4.4v5.3h4.4v-5.3Zm-21.8,36.6h4.4V211.3c0-6.8,2.6-10.7,9.6-10.7V196c-4.7-.2-7.6,1.9-9.7,6.2h-0.1v-5.6h-4.1v26.5h-0.1Zm-4.9-18c-0.7-6.3-5.4-9.1-11.4-9.1-8.4,0-12.5,6.3-12.5,14.2s4.3,13.5,12.4,13.5c6.7,0,10.7-3.8,11.7-10.3h-4.5c-0.6,4.1-3,6.5-7.3,6.5-5.5,0-7.7-4.8-7.7-9.7,0-5.3,1.9-10.4,8.3-10.4,3.6,0,5.9,1.9,6.6,5.3h4.4Zm-49.8,9.6c0.3,6.6,5.3,9,11.2,9,5.4,0,11.3-2,11.3-8.4,0-5.1-4.3-6.6-8.7-7.5-4.1-.9-8.7-1.5-8.7-4.6,0-2.7,3-3.4,5.6-3.4,2.8,0,5.9,1.1,6.2,4.5h4.4c-0.4-6.5-4.9-8.3-10.9-8.3-4.7,0-9.9,2.2-9.9,7.5,0,10.2,17.3,5.6,17.3,12.4,0,3.3-3.7,3.9-6.4,3.9-3.5,0-7-1.2-7.1-5.1h-4.3Zm-8.1-5.1c0,5.2-2,10.3-7.9,10.3s-8.4-4.9-8.4-10.1c0-4.9,2.2-10,8.1-10C293,199.8,295.5,204.6,295.5,209.6ZM275,223.1h4.4v-3.5h0.1c1.9,3.1,5.9,4.2,8.6,4.2,8.1,0,12.1-6.3,12.1-13.8s-4.1-13.9-12.2-13.9c-3.7,0-7,1.3-8.5,4.2h-0.1V186.6H275v36.5Zm-6.7-26.5h-4.4v15c0,4.8-2.6,8.3-7.8,8.3a5,5,0,0,1-5.4-5.3V196.7h-4.4V214c0,5.7,2.2,9.7,9.1,9.7,3.8,0,6.8-1.5,8.6-4.8h0.1v4.2h4.1V196.6h0.1Zm-28.7.6c-0.3-8.1-6-11.6-13.5-11.6-6.7,0-13.3,3.3-13.3,10.7,0,13.4,23.4,6.8,23.4,16.9,0,5.3-4.9,6.7-9.3,6.7-5.5,0-10.7-2.7-10.7-8.8h-4.6c0,8.9,6.9,12.9,15.1,12.9,6.7,0,14.3-3.1,14.3-10.9,0-14.4-23.4-8.1-23.4-17.1,0-4.8,4.1-6.3,8.2-6.3,5.1,0,8.5,2.2,9.1,7.5h4.7Zm-47.4-10.7h-4.4v13.6h-0.1c-1.9-3.1-5.9-4.2-8.6-4.2-8.1,0-12.1,6.3-12.1,13.8s4.1,13.9,12.2,13.9c3.7,0,7-1.3,8.5-4.2h0.1V223h4.4V186.5h0ZM171.6,210c0-5.2,2-10.3,7.9-10.3s8.4,4.9,8.4,10.1c0,4.9-2.2,10-8.1,10C174.2,219.8,171.6,215,171.6,210Zm-14.3,13.1h4.4V186.5h-4.4v36.6Zm-11.3,0h4.4V196.6H146v26.5Zm4.3-36.6H146v5.3h4.4v-5.3h-0.1Zm-11.2,10.1h-4.4v15c0,4.8-2.6,8.3-7.8,8.3a5,5,0,0,1-5.4-5.3V196.7h-4.4V214c0,5.7,2.2,9.7,9.1,9.7,3.8,0,6.8-1.5,8.6-4.8h0.1v4.2H139V196.6h0.1Zm-51.5,9.7H98.7c4.1,0,7.9,1.3,7.9,6.1,0,4.1-2.6,6.6-6.9,6.6H87.6V206.3Zm-4.8,16.8h17.7c7.2,0,11.1-5.2,11.1-10.5a8.46,8.46,0,0,0-7-8.8v-0.1a8.41,8.41,0,0,0,5.4-8.2,8.58,8.58,0,0,0-4.3-7.6c-2.2-1.3-6.5-1.3-9.7-1.3H82.8v36.5Zm4.8-32.5h9.7c4.3,0,7.8.7,7.8,5.8,0,3.9-2.3,5.8-7.8,5.8H87.6V190.6Z" transform="translate(-65.3 -5.7)"/></svg>