<svg width="442" height="440" viewBox="0 0 442 440" xmlns="http://www.w3.org/2000/svg" xmlns:xlink="http://www.w3.org/1999/xlink" overflow="hidden"><g id="Page-1" fill="none" fill-rule="evenodd"><g id="noun_Target_2629549" fill="#000000" fill-rule="nonzero"><g id="Group" transform="translate(199 0)"><g id="Path" transform="translate(81 0)"><path d="M10 150.3 10.3 100.6 100.3 10.6 106.2 54 151.9 62.2 61.1 153Z" fill="#072C52"/><path d="M20 150.3C20.1 133.7 20.2 117.2 20.3 100.6 19.3 103 18.3 105.3 17.4 107.7 43.7 81.4 70.1 55 96.4 28.7 100.1 25 103.8 21.3 107.4 17.7 101.8 16.2 96.3 14.8 90.7 13.3 92.7 27.8 94.6 42.3 96.6 56.7 97 59.8 100.6 63.1 103.6 63.7 118.8 66.4 134.1 69.2 149.3 71.9 147.8 66.3 146.4 60.8 144.9 55.2 118.4 81.7 91.9 108.2 65.3 134.8 61.5 138.6 57.8 142.3 54 146.1 56.4 145.1 58.7 144.1 61.1 143.2 44.1 142.3 27 141.4 10 140.5-2.9 139.8-2.8 159.8 10 160.5 23.1 161.2 36.2 161.9 49.3 162.6 55.4 162.9 63.2 164.7 68.2 160.3 69.8 158.8 71.3 157.2 72.9 155.6 94.7 133.8 116.4 112.1 138.2 90.3 145.2 83.3 152.1 76.4 159.1 69.4 164 64.5 162.3 54 154.7 52.7 139.5 50 124.2 47.2 109 44.5 111.3 46.8 113.7 49.2 116 51.5 114 37 112.1 22.5 110.1 8.1 109 0.4 98.2-1.1 93.4 3.7 76 20.7 58.8 38 41.6 55.2 31.3 65.5 21 75.8 10.7 86.1 8.4 88.4 5.9 90.7 3.7 93.1 0.1 97 0.3 101.2 0.3 106.1 0.2 120.8 0.1 135.6-0.000373752 150.3-0.1 163.2 19.9 163.2 20 150.3Z" fill="#072C52"/></g><g id="Path" transform="matrix(1 0 0 1 0 139)"><line x1="91" y1="10.4" x2="10.5" y2="90.9"/><path d="M83.9 3.3C60.4 26.8 37 50.2 13.5 73.7 10.1 77.1 6.7 80.5 3.3 83.9-5.8 93 8.3 107.2 17.4 98 40.9 74.5 64.3 51.1 87.8 27.6 91.2 24.2 94.6 20.8 98 17.4 107.2 8.4 93.1-5.8 83.9 3.3L83.9 3.3Z" fill="#072C52"/></g></g><path d="M266.3 218.6C270.2 238.5 263.4 258.9 248.6 272.6 234.6 285.5 214.4 290.7 195.9 286.1 177.9 281.7 162.4 268.6 155.7 251.1 148.6 232.7 151.2 211.9 162.7 195.8 175.6 177.7 198.8 168.8 220.6 172.9 225.9 173.9 231.4 171.4 232.9 165.9 234.2 161 231.2 154.6 225.9 153.6 199.2 148.5 171.4 156.4 152.7 176.5 135 195.6 127.9 222.6 133.9 248 139.8 273.1 158.5 293.4 182.4 302.6 206 311.7 234.3 308 254.8 293.1 280.2 274.5 291.8 243.9 285.7 213.1 284.7 207.8 278.3 204.8 273.4 206.1 267.7 207.9 265.2 213.3 266.3 218.6L266.3 218.6Z" id="Path" fill="#072C52"/><path d="M329.2 190.2C343.7 235.4 332.3 285.4 298.7 319.1 268.2 349.6 222.9 362.7 180.8 352.7 139.3 342.9 104.4 312 90.5 271.5 76.5 230.7 84 183.9 111.6 150.4 145.7 109.1 201.7 93.7 252.3 111.2 257.4 113 263.2 109.2 264.6 104.2 266.1 98.7 262.7 93.7 257.6 91.9 206.2 74.1 147.9 86.7 108.6 124.3 72.1 159.1 56.4 211.4 66.7 260.6 76.9 309.2 112.6 349.4 158.8 366.8 206.4 384.8 260.9 375.3 300.6 343.9 341.4 311.7 361.2 259.2 353.9 208 352.8 200.1 350.9 192.3 348.5 184.7 344.6 172.7 325.2 177.9 329.2 190.2L329.2 190.2Z" id="Path" fill="#072C52"/><path d="M384 155.7C412.2 224 399.3 303.8 349 358.3 303.9 407.1 234.9 429.4 169.7 415.3 105.9 401.5 52 354.4 30.6 292.6 8.8 229.4 21.9 157.3 65.7 106.6 111.9 53.2 185.1 29 253.9 45.7 264.4 48.2 274.5 51.6 284.5 55.8 289.5 57.9 295.5 53.6 296.8 48.8 298.4 43 294.8 38.6 289.8 36.5 215.5 5.4 128 21.1 68.5 75 13.7 124.7-10.5 201.5 4.7 273.8 19.5 344.5 72 403.3 139.8 427.5 209.5 452.4 288.8 437.1 345.1 389.6 404.4 339.6 430.8 258.6 413.7 183.1 411.2 171.9 407.6 161 403.2 150.4 401.1 145.4 396.6 141.9 390.9 143.4 386.2 144.7 381.9 150.7 384 155.7L384 155.7Z" id="Path" fill="#072C52"/></g></g></svg>