<svg width="68" height="62" viewBox="0 0 68 62" xmlns="http://www.w3.org/2000/svg" xmlns:xlink="http://www.w3.org/1999/xlink" overflow="hidden"><g id="Page-1" fill="none" fill-rule="evenodd"><g id="noun_Graph_648717" fill="#000000" fill-rule="nonzero"><g id="Group"><path d="M12.103 44.469C11.551 44.469 11.103 44.917 11.103 45.469L11.103 56.969C11.103 57.521 11.551 57.969 12.103 57.969L19.103 57.969C19.655 57.969 20.103 57.521 20.103 56.969L20.103 45.469C20.103 44.917 19.655 44.469 19.103 44.469L12.103 44.469 12.103 44.469ZM18.103 55.969 13.103 55.969 13.103 46.469 18.103 46.469 18.103 55.969Z" id="Shape" fill="#072C52"/><path d="M31.945 34.469 24.945 34.469C24.393 34.469 23.945 34.917 23.945 35.469L23.945 56.969C23.945 57.521 24.393 57.969 24.945 57.969L31.945 57.969C32.497 57.969 32.945 57.521 32.945 56.969L32.945 35.469C32.945 34.917 32.497 34.469 31.945 34.469ZM30.945 55.969 25.945 55.969 25.945 36.469 30.945 36.469 30.945 55.969Z" id="Shape" fill="#072C52"/><path d="M37.787 24.469C37.235 24.469 36.787 24.917 36.787 25.469L36.787 56.969C36.787 57.521 37.235 57.969 37.787 57.969L44.787 57.969C45.339 57.969 45.787 57.521 45.787 56.969L45.787 25.469C45.787 24.917 45.339 24.469 44.787 24.469L37.787 24.469ZM43.787 55.969 38.787 55.969 38.787 26.469 43.787 26.469 43.787 55.969Z" id="Shape" fill="#072C52"/><path d="M49.628 15.469 49.628 56.969C49.628 57.521 50.076 57.969 50.628 57.969L57.628 57.969C58.18 57.969 58.628 57.521 58.628 56.969L58.628 15.469C58.628 14.917 58.18 14.469 57.628 14.469L50.628 14.469C50.076 14.469 49.628 14.917 49.628 15.469ZM51.628 16.469 56.628 16.469 56.628 55.969 51.628 55.969 51.628 16.469Z" id="Shape" fill="#072C52"/><path d="M1.084 61.336 66.897 61.336C67.449 61.336 67.897 60.888 67.897 60.336 67.897 59.784 67.449 59.336 66.897 59.336L1.084 59.336C0.532 59.336 0.084 59.784 0.084 60.336 0.084 60.888 0.532 61.336 1.084 61.336Z" id="Path" fill="#072C52"/><path d="M8.454 40.707C8.603 40.707 8.754 40.674 8.897 40.603 9.041 40.532 23.389 33.386 32.938 25.05 40.247 18.669 46.297 9.051 48.902 4.572L49.044 5.486C49.121 5.98 49.546 6.333 50.031 6.333 50.082 6.333 50.134 6.329 50.186 6.321 50.732 6.236 51.105 5.725 51.021 5.179L50.464 1.591C50.42 1.308 50.253 1.067 50.018 0.913 49.964 0.867 49.919 0.813 49.854 0.779 49.698 0.697 49.533 0.675 49.369 0.678 49.21 0.666 49.049 0.681 48.899 0.745L45.455 2.229C44.948 2.448 44.714 3.036 44.933 3.543 45.152 4.049 45.738 4.284 46.247 4.065L47.083 3.705C44.476 8.146 38.553 17.493 31.623 23.542 22.272 31.705 8.151 38.739 8.01 38.81 7.515 39.055 7.313 39.655 7.558 40.15 7.731 40.503 8.085 40.707 8.454 40.707Z" id="Path" fill="#072C52"/></g></g></g></svg>