<svg width="95" height="95" viewBox="0 0 95 95" xmlns="http://www.w3.org/2000/svg" xmlns:xlink="http://www.w3.org/1999/xlink" overflow="hidden"><g id="Page-1" fill="none" fill-rule="evenodd"><path d="M47.5 0C21.3 0 0 21.3 0 47.5 0 73.7 21.3 95 47.5 95 73.7 95 95 73.7 95 47.5 95 21.3 73.7 0 47.5 0ZM66.9 40.5 47.1 63.1C46.1 64.2 44.7 64.9 43.2 64.9 43.1 64.9 43.1 64.9 43 64.9 41.6 64.9 40.2 64.3 39.2 63.3L26.9 51.1C24.8 49 24.8 45.5 26.9 43.4 29 41.3 32.5 41.3 34.6 43.4L42.7 51.5 58.8 33.2C60.8 30.9 64.2 30.7 66.5 32.7 68.7 34.8 68.9 38.2 66.9 40.5Z" id="Shape" fill="#1AAC97" fill-rule="nonzero"/></g></svg>