<svg width="45" height="43" viewBox="0 0 45 43" xmlns="http://www.w3.org/2000/svg" xmlns:xlink="http://www.w3.org/1999/xlink" overflow="hidden"><g id="Page-1" fill="none" fill-rule="evenodd"><g id="noun_Eight-coins_1824690" fill="#000000" fill-rule="nonzero"><g id="Group"><path d="M19.9236 24.2397C19.7748 23.5074 19.4133 22.8226 18.8791 22.2053 19.2417 22.2281 19.6156 22.2399 20 22.2399 21.9808 22.2399 23.6821 21.9263 25 21.4092L25 23.458C23.5157 23.9606 21.8013 24.2399 20 24.2399 19.9745 24.2399 19.949 24.2399 19.9236 24.2397ZM20 28.2399C21.9808 28.2399 23.6821 27.9263 25 27.4092L25 29.458C23.5157 29.9606 21.8013 30.2399 20 30.2399L20 28.2399ZM10 19 10 5.99907 12 5.99907 12 12.2399C12 14.3738 15.168 16.2399 20 16.2399 22.2035 16.2399 24.0609 15.8519 25.4297 15.2273 25.1504 15.7839 25 16.3784 25 17L25 17.458C23.5157 17.9606 21.8013 18.2399 20 18.2399 16.7852 18.2399 13.8473 17.3503 12 15.8894L12 18.2399C12 18.5478 12.0659 18.8501 12.1933 19.142 11.4864 19.0489 10.7522 19 10 19ZM27.9456 12.722C27.9816 12.5633 28 12.4024 28 12.2399L28 5.99639 30 5.99639 30 11.7888C29.2486 12.0457 28.5581 12.3596 27.9456 12.722ZM28 6C28 3.86982 24.4573 2 20 2 15.5427 2 12 3.86982 12 6 12 8.13018 15.5427 10 20 10 24.4573 10 28 8.13018 28 6ZM27 34.0463 27 34.2399C27 36.3738 30.168 38.2399 35 38.2399 39.832 38.2399 43 36.3738 43 34.2399L43 34.0437 43 31.8894C41.1527 33.3503 38.2148 34.2399 35 34.2399 31.7852 34.2399 28.8473 33.3503 27 31.8894L27 34.0463ZM25 34.0463 25 15.9991 27 15.9991 27 22.2399C27 24.3738 30.168 26.2399 35 26.2399 39.832 26.2399 43 24.3738 43 22.2399L43 15.9964 45 15.9964 45 34.0437 45 34.2399C45 37.7399 40.3892 40.2399 35 40.2399 29.6108 40.2399 25 37.7399 25 34.2399L25 34.0463ZM27 28.2399C27 30.3738 30.168 32.2399 35 32.2399 39.832 32.2399 43 30.3738 43 28.2399L43 25.8894C41.1527 27.3503 38.2148 28.2399 35 28.2399 31.7852 28.2399 28.8473 27.3503 27 25.8894L27 28.2399ZM30 6C30 9.40768 25.479 12 20 12 14.521 12 10 9.40768 10 6 10 2.59232 14.521 0 20 0 25.479 0 30 2.59232 30 6ZM43 16C43 13.8698 39.4573 12 35 12 30.5427 12 27 13.8698 27 16 27 18.1302 30.5427 20 35 20 39.4573 20 43 18.1302 43 16ZM2 30.2399C2 32.3738 5.16799 34.2399 10 34.2399 14.832 34.2399 18 32.3738 18 30.2399L18 23.9964 20 23.9964 20 35.9928 18 35.9928 18 33.8894C16.1527 35.3503 13.2148 36.2399 10 36.2399 6.78516 36.2399 3.84732 35.3503 2 33.8894L2 35.9946 0 35.9946 0 23.9982 2 23.9982 2 30.2399ZM45 16C45 19.4077 40.479 22 35 22 29.521 22 25 19.4077 25 16 25 12.5923 29.521 10 35 10 40.479 10 45 12.5923 45 16ZM18 36 20 36C20 39.6399 15.3892 42.2399 10 42.2399 4.61081 42.2399 0 39.6399 0 36L2 36C2 38.2192 5.16799 40.1599 10 40.1599 14.832 40.1599 18 38.2192 18 36ZM20 24C20 27.4077 15.479 30 10 30 4.52099 30 0 27.4077 0 24 0 20.5923 4.52099 18 10 18 15.479 18 20 20.5923 20 24ZM18 24C18 21.8698 14.4573 20 10 20 5.5427 20 2 21.8698 2 24 2 26.1302 5.5427 28 10 28 14.4573 28 18 26.1302 18 24Z" id="Shape" stroke-width="0.340909" fill="#072C52"/></g></g></g></svg>